<svg width="32" height="32" viewBox="0 0 32 32" fill="none" xmlns="http://www.w3.org/2000/svg">
<path d="M2.13331 9.59998C0.955105 9.59998 0 10.5552 0 11.7334V29.8666C0 31.0448 0.955105 31.9999 2.13331 31.9999H29.8666C31.0448 31.9999 31.9999 31.0448 31.9999 29.8666V11.7334C31.9999 10.5552 31.0448 9.60005 29.8666 9.60005H2.13331V9.59998Z" fill="#FFA438"/>
<path d="M26.6663 26.6666C26.6663 27.2558 26.1888 27.7333 25.5997 27.7333H6.39969C5.81056 27.7333 5.33301 27.2558 5.33301 26.6666V1.06669C5.33301 0.477617 5.81056 0 6.39969 0H21.9578C22.2408 0 22.512 0.112354 22.7121 0.312402L26.3539 3.95415C26.5539 4.1542 26.6663 4.42552 26.6663 4.70837V26.6666H26.6663Z" fill="#E9EFFF"/>
<path d="M26.3539 3.9542L22.7121 0.312455C22.5121 0.112407 22.2408 5.34058e-05 21.9579 5.34058e-05H20.4771C20.76 5.34058e-05 21.0313 0.112407 21.2313 0.312455L24.8731 3.9542C25.0731 4.15425 25.1855 4.42557 25.1855 4.70842V26.6666C25.1855 27.2558 24.7079 27.7333 24.1188 27.7333H25.5997C26.1887 27.7333 26.6663 27.2558 26.6663 26.6666V4.70849C26.6663 4.42557 26.554 4.15425 26.3539 3.9542V3.9542Z" fill="#BEC8F7"/>
<path d="M26.3539 3.95421L22.7121 0.312463C22.621 0.221357 22.5147 0.149502 22.3997 0.0970917V3.19999C22.3997 3.78906 22.8772 4.26668 23.4663 4.26668H26.5692C26.5169 4.15168 26.445 4.04532 26.3539 3.95421V3.95421Z" fill="#BEC8F7"/>
<path d="M22.581 0.202439C22.5749 0.198061 22.5691 0.193361 22.5629 0.189111C22.5378 0.17192 22.5119 0.155824 22.4854 0.140822C22.4848 0.140564 22.4844 0.140242 22.4839 0.13992C22.4564 0.124468 22.4284 0.110238 22.3997 0.097168H22.3997V1.48089L24.873 3.95422C24.9641 4.04533 25.0359 4.15163 25.0883 4.26669H26.5692C26.5562 4.23804 26.5419 4.2099 26.5264 4.18241C26.5262 4.18202 26.526 4.18163 26.5257 4.18125C26.5107 4.15466 26.4945 4.12871 26.4772 4.10341C26.473 4.09735 26.4683 4.09156 26.464 4.08557C26.4499 4.06587 26.4357 4.04623 26.4202 4.02749C26.3992 4.00225 26.3772 3.97766 26.3539 3.95422L22.7121 0.312475C22.6888 0.289039 22.6642 0.267083 22.6389 0.246093C22.6202 0.230705 22.6006 0.216476 22.581 0.202439V0.202439Z" fill="#A2B6F4"/>
<path d="M18.6847 2.13338H13.3149C13.0304 2.13338 12.7998 2.36402 12.7998 2.64847V3.7516C12.7998 4.03606 13.0304 4.26669 13.3149 4.26669H18.6847C18.9692 4.26669 19.1998 4.03606 19.1998 3.7516V2.64847C19.1998 2.36395 18.9692 2.13338 18.6847 2.13338Z" fill="#77DFFF"/>
<path d="M14.3998 14.3331C14.3454 14.3331 14.29 14.3236 14.2361 14.3033C13.9949 14.2129 13.8727 13.9441 13.9632 13.7029L15.5632 9.43625C15.6314 9.25423 15.8055 9.13363 15.9998 9.13363C16.1942 9.13363 16.3683 9.25423 16.4365 9.43625L18.0365 13.7029C18.1269 13.9441 18.0047 14.2129 17.7636 14.3033C17.5227 14.3939 17.2536 14.2716 17.1632 14.0304L15.9998 10.9283L14.8365 14.0304C14.7663 14.2176 14.5886 14.3331 14.3998 14.3331V14.3331Z" fill="#5B7FA0"/>
<path d="M17.1999 13.2664H14.7999C14.5423 13.2664 14.3335 13.0576 14.3335 12.8C14.3335 12.5425 14.5423 12.3337 14.7999 12.3337H17.1999C17.4575 12.3337 17.6663 12.5425 17.6663 12.8C17.6663 13.0576 17.4575 13.2664 17.1999 13.2664Z" fill="#5B7FA0"/>
<path d="M15.9999 16.4664C13.39 16.4664 11.2668 14.3431 11.2668 11.7334C11.2668 9.12358 13.3901 7.00031 15.9999 7.00031C18.6097 7.00031 20.7329 9.12358 20.7329 11.7334C20.7329 14.3431 18.6097 16.4664 15.9999 16.4664V16.4664ZM15.9999 7.93308C13.9044 7.93308 12.1996 9.6379 12.1996 11.7334C12.1996 13.8288 13.9044 15.5336 15.9999 15.5336C18.0954 15.5336 19.8002 13.8288 19.8002 11.7334C19.8002 9.6379 18.0954 7.93308 15.9999 7.93308V7.93308Z" fill="#5B7FA0"/>
<path d="M32 29.8666V11.7334C32 11.08 31.706 10.4957 31.2435 10.1043L18.3667 18.6889C16.9336 19.6443 15.0665 19.6443 13.6333 18.6889L0.756473 10.1043C0.293987 10.4957 0 11.08 0 11.7334V29.8666C0 31.0449 0.955105 32 2.13331 32H29.8666C31.0448 32 32 31.0449 32 29.8666Z" fill="#FFC55E"/>
<path d="M17.618 28.8H14.3815C14.0971 28.8 13.8665 28.5694 13.8665 28.2849V27.1818C13.8665 26.8973 14.0971 26.6667 14.3815 26.6667H17.618C17.9025 26.6667 18.1331 26.8973 18.1331 27.1818V28.2849C18.1331 28.5694 17.9025 28.8 17.618 28.8Z" fill="#77DFFF"/>
<path d="M20.173 17.4848L19.3943 18.004C19.4046 18.0194 19.4156 18.0345 19.428 18.0489L31.0683 31.6294C31.3293 31.4512 31.5483 31.2164 31.7085 30.943L20.173 17.4848Z" fill="#FFA438"/>
<path d="M12.6057 18.004L11.8271 17.4848L0.291504 30.943C0.451697 31.2165 0.670739 31.4512 0.931631 31.6295L12.5721 18.049C12.5844 18.0346 12.5954 18.0194 12.6057 18.004V18.004Z" fill="#FFA438"/>
<path d="M17.6183 26.6666H16.1375C16.4219 26.6666 16.6525 26.8973 16.6525 27.1817V28.2849C16.6525 28.5693 16.4219 28.8 16.1375 28.8H17.6183C17.9028 28.8 18.1334 28.5693 18.1334 28.2849V27.1817C18.1334 26.8973 17.9028 26.6666 17.6183 26.6666Z" fill="#69CDFF"/>
<path d="M18.6845 2.13338H17.2036C17.4881 2.13338 17.7187 2.36402 17.7187 2.64847V3.7516C17.7187 4.03606 17.4881 4.26669 17.2036 4.26669H18.6845C18.969 4.26669 19.1996 4.03606 19.1996 3.7516V2.64847C19.1996 2.36395 18.969 2.13338 18.6845 2.13338Z" fill="#69CDFF"/>
<path d="M31.2437 10.1043L30.266 10.7562C30.4174 11.049 30.5035 11.381 30.5035 11.7334V29.8666C30.5035 31.0449 29.5483 32 28.3701 32H29.8668C31.045 32 32.0002 31.0449 32.0002 29.8666V11.7334C32.0002 11.08 31.7062 10.4957 31.2437 10.1043Z" fill="#FFB332"/>
</svg>
