<svg width="32" height="32" viewBox="0 0 32 32" fill="none" xmlns="http://www.w3.org/2000/svg">
<path d="M7.99976 10.2857V8.56571C7.99976 8.56571 9.14261 2.28 15.9998 2.28C22.8569 2.28 23.9998 8.56571 23.9998 8.56571V10.2857H7.99976Z" fill="#805333"/>
<path d="M24.0005 13.7143C24.0005 14.0299 23.7447 14.2857 23.4291 14.2857C23.1135 14.2857 22.8577 14.0299 22.8577 13.7143C22.8577 5.02857 22.8211 4.75485 22.9434 4.57142C23.0405 4.40571 23.2234 5.71428 23.4291 5.71428C23.5903 5.71466 23.7439 5.78315 23.852 5.90285C24.0531 6.90799 24.0005 6.86399 24.0005 13.7143Z" fill="#A5A5A4"/>
<path d="M9.14292 13.7143C9.14292 14.0299 8.88708 14.2857 8.57149 14.2857C8.2559 14.2857 8.00006 14.0299 8.00006 13.7143C8.00006 7.05485 7.94977 6.89657 8.14863 5.90285C8.25666 5.78315 8.41024 5.71466 8.57149 5.71428C8.7772 5.71428 8.96006 4.40571 9.0572 4.57142C9.18006 4.75599 9.14292 5.03142 9.14292 13.7143Z" fill="#A5A5A4"/>
<path d="M8.00052 10.2857H24.0005C24.6317 10.2857 25.1434 10.7974 25.1434 11.4286V14.8572C25.1434 15.4883 24.6317 16 24.0005 16H8.00052C7.36934 16 6.85767 15.4883 6.85767 14.8572V11.4286C6.85767 10.7974 7.36934 10.2857 8.00052 10.2857Z" fill="#547580"/>
<path d="M30.2802 31.4228C30.2842 31.5751 30.2263 31.7225 30.1196 31.8313C30.013 31.9401 29.8668 32.0009 29.7145 31.9999H2.28588C2.13355 32.0009 1.98734 31.9401 1.8807 31.8313C1.77407 31.7225 1.71614 31.5751 1.72017 31.4228V29.1428C1.8916 25.6571 3.68017 25.1428 3.68017 25.1428L11.4287 22.8571H20.5716L28.3202 25.1428C28.3202 25.1428 30.1087 25.6571 30.2802 29.1428V31.4228Z" fill="#285680"/>
<path d="M29.1372 31.3886C29.1499 31.5387 29.1022 31.6878 29.0046 31.8026C28.9069 31.9174 28.7674 31.9885 28.6172 32H3.38288C3.23259 31.9885 3.09313 31.9174 2.99548 31.8026C2.89783 31.6878 2.85009 31.5387 2.86288 31.3886V28.9657C2.96573 26.4514 3.76573 25.3886 4.26288 24.9714L11.4286 22.8571H20.5715L27.7372 24.9714C28.2343 25.3886 29.0343 26.4514 29.1372 28.9657V31.3886Z" fill="#4482C3"/>
<path d="M20.5716 18.9886V22.8571C20.5716 22.8571 20.0002 25.1429 16.0001 25.1429C12.0001 25.1429 11.4287 22.8571 11.4287 22.8571V18.9886H20.5716Z" fill="#F9C795"/>
<path d="M21.8654 14.8172C21.8917 16.2692 22.1603 17.56 20.5077 19.0457C18.7049 20.6686 18.7049 22.2857 16.9014 22.2857H15.0986C13.2957 22.2857 13.2957 20.6686 11.4929 19.0457C9.74714 17.4766 10.1409 16.1429 10.1409 14.4229C10.1409 12.8669 9.38657 11.5326 9.89229 9.78344C10.1689 8.69094 10.7017 7.68001 11.4466 6.83429C11.7373 6.55698 12.1199 6.3963 12.5214 6.38286C14.1277 6.28001 18.7334 6.07429 20.6232 6.97715C20.6232 6.97715 21.6649 7.61315 22.1906 9.94173C22.5717 11.6274 21.8289 12.8 21.8654 14.8172V14.8172Z" fill="#FDD7AD"/>
<path d="M15.4287 19.4286H9.71443C8.45206 19.4286 7.42871 18.4052 7.42871 17.1429V16C7.42871 15.6844 7.68455 15.4286 8.00014 15.4286C8.31573 15.4286 8.57157 15.6844 8.57157 16V17.1429C8.57157 17.7741 9.08324 18.2857 9.71443 18.2857H15.4287C15.7443 18.2857 16.0001 18.5416 16.0001 18.8572C16.0001 19.1728 15.7443 19.4286 15.4287 19.4286Z" fill="#A5A5A4"/>
<path d="M17.1428 17.1429H14.8571C14.5415 17.1429 14.2856 17.3987 14.2856 17.7143V18.8572C14.2856 19.1727 14.5415 19.4286 14.8571 19.4286H17.1428C17.4584 19.4286 17.7142 19.1727 17.7142 18.8572V17.7143C17.7142 17.3987 17.4584 17.1429 17.1428 17.1429Z" fill="#547580"/>
<path d="M23.9998 7.42857V8.57143C23.7935 7.65767 23.4362 6.78473 22.9426 5.98857C21.8855 4.25143 19.834 2.28571 15.9998 2.28571C12.1655 2.28571 10.114 4.25143 9.0569 5.98857C8.56331 6.78473 8.20603 7.65767 7.99976 8.57143V7.42857C7.99976 3.00914 11.5815 0 15.9998 0C20.418 0 23.9998 3.004 23.9998 7.42857Z" fill="#7F8284"/>
</svg>
