<svg width="32" height="32" viewBox="0 0 32 32" fill="none" xmlns="http://www.w3.org/2000/svg">
<g clip-path="url(#clip0)">
<path d="M31.9999 2.87494V21.6245C31.9999 23.1806 30.7436 24.4369 29.1874 24.4369H2.81305C1.2568 24.4369 0.000610352 23.1806 0.000610352 21.6245V2.87494C0.000610352 1.31869 1.2568 0 2.81305 0H29.1874C30.7437 0 31.9999 1.31869 31.9999 2.87494Z" fill="#C5C9F7"/>
<path d="M31.9995 2.87494V21.6245C31.9995 23.1806 30.7433 24.4369 29.1871 24.4369H21.6873V0H29.1871C30.7434 0 31.9995 1.31869 31.9995 2.87494Z" fill="#A8AFF1"/>
<path d="M26.3748 22.0557V31.0618C26.3748 31.7555 25.6435 32.2055 25.0248 31.9055L21.6873 30.2368L18.3498 31.9055C17.7125 32.2054 17 31.7366 17 31.0617V22.0557C17 21.5307 17.4124 21.1182 17.9375 21.1182H25.4373C25.9623 21.1182 26.3748 21.5307 26.3748 22.0557Z" fill="#FD003A"/>
<path d="M26.3747 22.0557V31.0618C26.3747 31.7555 25.6434 32.2055 25.0248 31.9055L21.6873 30.2368V21.1182H25.4372C25.9623 21.1182 26.3747 21.5307 26.3747 22.0557Z" fill="#E50027"/>
<path d="M28.2499 6.62489V17.8746L26.3749 20.6871H6.56287C6.0378 20.6871 5.62537 20.2745 5.62537 19.7496C5.62537 19.2245 5.21293 18.8121 4.68787 18.8121C4.1628 18.8121 3.75037 18.3995 3.75037 17.8746V6.62489C3.75037 6.09983 4.1628 5.68739 4.68787 5.68739C5.21293 5.68739 5.62537 5.27483 5.62537 4.74989C5.62537 4.22483 6.0378 3.81239 6.56287 3.81239H25.4374C25.9625 3.81239 26.3749 4.22483 26.3749 4.74989C26.3749 5.27483 26.7874 5.68739 27.3124 5.68739C27.8374 5.68739 28.2499 6.09983 28.2499 6.62489Z" fill="#E1E4FB"/>
<path d="M28.2497 6.62488V17.8746L26.3748 20.6871H21.6874V3.81245H25.4373C25.9624 3.81245 26.3748 4.22488 26.3748 4.74995C26.3748 5.27488 26.7873 5.68745 27.3123 5.68745C27.8373 5.68738 28.2497 6.09982 28.2497 6.62488Z" fill="#C5C9F7"/>
<path d="M21.6874 13.1872H8.43774C7.91956 13.1872 7.50024 12.7679 7.50024 12.2497C7.50024 11.7315 7.91956 11.3122 8.43774 11.3122H21.6874C22.2056 11.3122 22.6249 11.7315 22.6249 12.2497C22.6249 12.7679 22.2056 13.1872 21.6874 13.1872Z" fill="#0D70B2"/>
<path d="M16.0626 16.9371H8.43774C7.91956 16.9371 7.50024 16.5178 7.50024 15.9996C7.50024 15.4814 7.91956 15.0621 8.43774 15.0621H16.0626C16.5807 15.0621 17.0001 15.4814 17.0001 15.9996C17.0001 16.5178 16.5807 16.9371 16.0626 16.9371Z" fill="#0D70B2"/>
<path d="M21.6874 11.3123C18.0687 11.3123 15.125 14.2559 15.125 17.8746C15.125 21.4933 18.0687 24.437 21.6874 24.437C25.3061 24.437 28.2498 21.4933 28.2498 17.8746C28.2498 14.2559 25.3061 11.3123 21.6874 11.3123Z" fill="#FEDB41"/>
<path d="M28.2496 17.8746C28.2496 21.4933 25.3059 24.4369 21.6873 24.4369V11.3123C25.3059 11.3123 28.2496 14.2559 28.2496 17.8746Z" fill="#FFCC33"/>
<path d="M21.6873 15.0621C20.1311 15.0621 18.8749 16.3183 18.8749 17.8746C18.8749 19.4307 20.1311 20.687 21.6873 20.687C23.2436 20.687 24.4998 19.4307 24.4998 17.8746C24.4998 16.3183 23.2436 15.0621 21.6873 15.0621Z" fill="#FEA832"/>
<path d="M24.4997 17.8746C24.4997 19.4307 23.2435 20.687 21.6873 20.687V15.0621C23.2435 15.0621 24.4997 16.3183 24.4997 17.8746Z" fill="#FE9923"/>
<path d="M24.4999 8.4998C24.4999 9.02473 24.0874 9.43729 23.5624 9.43729H8.43774C7.91268 9.43729 7.50024 9.02473 7.50024 8.4998C7.50024 7.97474 7.91268 7.5623 8.43774 7.5623H23.5624C24.0874 7.5623 24.4999 7.97474 24.4999 8.4998Z" fill="#0D70B2"/>
<path d="M24.4997 8.49983C24.4997 9.02477 24.0873 9.43733 23.5622 9.43733H21.6873V7.56239H23.5622C24.0873 7.56233 24.4997 7.97477 24.4997 8.49983Z" fill="#095C92"/>
</g>
<defs>
<clipPath id="clip0">
<path d="M0 0H32V32H0V0Z" fill="white"/>
</clipPath>
</defs>
</svg>
