<svg width="32" height="32" viewBox="0 0 32 32" fill="none" xmlns="http://www.w3.org/2000/svg">
<path d="M16.1117 13.2719C16.0856 13.2973 16.0506 13.3114 16.0142 13.3113L15.903 2.20001H15.9042C15.9044 2.04226 15.9356 1.88608 15.9961 1.7404C16.0566 1.59473 16.1453 1.46239 16.2569 1.35096C16.3686 1.23953 16.5011 1.15119 16.6469 1.09097C16.7927 1.03075 16.949 0.999844 17.1067 1.00001H23.898C24.1361 1.00001 24.3644 1.09455 24.5328 1.26284C24.7012 1.43114 24.7959 1.65942 24.7961 1.89751V11.5813C24.7959 11.8193 24.7012 12.0476 24.5328 12.2159C24.3644 12.3842 24.1361 12.4788 23.898 12.4788H16.9836C16.9474 12.4788 16.9127 12.4929 16.8867 12.5181L16.1117 13.2719Z" fill="#E5E5E5"/>
<path d="M10.9481 24.2413L11.065 24.3463C10.7035 24.8913 10.5113 25.5311 10.5125 26.1851V29.5188H2.53125V26.6006C2.53102 25.8401 2.82786 25.1095 3.35849 24.5646C3.88912 24.0197 4.61157 23.7037 5.37188 23.6838C5.59879 23.9911 5.89293 24.2425 6.23184 24.4188C6.57076 24.5952 6.94548 24.6917 7.32739 24.7011C7.70931 24.7105 8.08833 24.6325 8.43551 24.4731C8.78269 24.3137 9.08885 24.0771 9.33062 23.7813C9.35489 23.7477 9.3823 23.7165 9.4125 23.6881C9.96681 23.7216 10.4998 23.9136 10.9481 24.2413V24.2413Z" fill="#FBB040"/>
<path d="M9.92901 18.8101V20.1276C9.92905 20.4668 9.86227 20.8027 9.73247 21.1161C9.60267 21.4295 9.4124 21.7143 9.17253 21.9542C8.93265 22.1941 8.64788 22.3843 8.33446 22.5141C8.02104 22.6439 7.68513 22.7107 7.34589 22.7107H7.33214C6.99291 22.7107 6.65699 22.6439 6.34358 22.5141C6.03016 22.3843 5.74538 22.1941 5.50551 21.9542C5.26564 21.7143 5.07537 21.4295 4.94557 21.1161C4.81577 20.8027 4.74898 20.4668 4.74902 20.1276V18.8101C4.74905 18.4709 4.81588 18.135 4.94571 17.8217C5.07554 17.5083 5.26583 17.2236 5.50569 16.9838C5.74556 16.744 6.03032 16.5538 6.3437 16.424C6.65709 16.2943 6.99296 16.2275 7.33214 16.2276H7.34589C7.68508 16.2275 8.02095 16.2943 8.33433 16.424C8.64772 16.5538 8.93247 16.744 9.17234 16.9838C9.41221 17.2236 9.60249 17.5083 9.73232 17.8217C9.86215 18.135 9.92899 18.4709 9.92901 18.8101Z" fill="#FBB040"/>
<path d="M29.4688 26.6007V29.5188H21.4988V26.185C21.5001 25.5245 21.3043 24.8785 20.9363 24.33C21.4344 23.9263 22.0522 23.699 22.6932 23.6838C22.9201 23.9911 23.2142 24.2425 23.5531 24.4188C23.892 24.5952 24.2668 24.6917 24.6487 24.7011C25.0306 24.7105 25.4096 24.6325 25.7568 24.4731C26.104 24.3137 26.4101 24.0771 26.6519 23.7813C26.6762 23.7477 26.7036 23.7165 26.7338 23.6881C27.4747 23.7344 28.1701 24.0614 28.6783 24.6026C29.1865 25.1437 29.4692 25.8583 29.4688 26.6007V26.6007Z" fill="#EADF53"/>
<path d="M27.2508 18.8101V20.1276C27.2508 20.4668 27.1841 20.8027 27.0543 21.1161C26.9245 21.4295 26.7342 21.7143 26.4943 21.9542C26.2544 22.1941 25.9697 22.3843 25.6562 22.5141C25.3428 22.6439 25.0069 22.7107 24.6677 22.7107H24.6539C24.3147 22.7107 23.9788 22.6439 23.6654 22.5141C23.3519 22.3843 23.0672 22.1941 22.8273 21.9542C22.5874 21.7143 22.3971 21.4295 22.2673 21.1161C22.1375 20.8027 22.0708 20.4668 22.0708 20.1276V18.8101C22.0708 18.4709 22.1377 18.135 22.2675 17.8217C22.3973 17.5083 22.5876 17.2236 22.8275 16.9838C23.0673 16.744 23.3521 16.5538 23.6655 16.424C23.9789 16.2943 24.3147 16.2275 24.6539 16.2276H24.6677C25.0069 16.2275 25.3427 16.2943 25.6561 16.424C25.9695 16.5538 26.2543 16.744 26.4941 16.9838C26.734 17.2236 26.9243 17.5083 27.0541 17.8217C27.1839 18.135 27.2508 18.4709 27.2508 18.8101Z" fill="#EADF53"/>
<path d="M16.0138 14.3338H15.9981C14.3682 14.3338 13.0469 15.6551 13.0469 17.2851V18.7894C13.0469 20.4194 14.3682 21.7407 15.9981 21.7407H16.0138C17.6437 21.7407 18.965 20.4194 18.965 18.7894V17.2851C18.965 15.6551 17.6437 14.3338 16.0138 14.3338Z" fill="#FB6771"/>
<path d="M20.9361 24.3301C21.3041 24.8786 21.4999 25.5245 21.4986 26.1851V31H10.5123V26.185C10.5121 25.316 10.8512 24.4813 11.4575 23.8588C12.0638 23.2363 12.8893 22.8752 13.7579 22.8525C14.0172 23.2036 14.3532 23.4909 14.7404 23.6923C15.1276 23.8937 15.5557 24.004 15.992 24.0148C16.4283 24.0255 16.8613 23.9364 17.2579 23.7542C17.6545 23.5721 18.0043 23.3017 18.2804 22.9638C18.3085 22.9256 18.3399 22.8901 18.3742 22.8575C18.8858 22.8892 19.3831 23.0386 19.8274 23.294C20.2718 23.5494 20.6512 23.904 20.9361 24.3301V24.3301Z" fill="#FB6771"/>
<path d="M16.0145 13.2956L15.9034 2.19999C15.9031 1.88149 15.7763 1.57615 15.5509 1.35111C15.3256 1.12608 15.02 0.999777 14.7015 0.999993H8.04339C7.80529 0.999976 7.57694 1.09451 7.40852 1.26281C7.2401 1.43111 7.14541 1.6594 7.14526 1.89749V11.5812C7.14541 11.8193 7.2401 12.0476 7.40852 12.2159C7.57694 12.3842 7.80529 12.4788 8.04339 12.4787H15.0465C15.0711 12.4789 15.0952 12.4856 15.1163 12.4982C15.1261 12.5037 15.1352 12.5104 15.1434 12.5182L15.9184 13.2719C15.9264 13.2795 15.9352 13.2861 15.9447 13.2917C15.9658 13.3044 15.99 13.3112 16.0146 13.3113L16.0145 13.2956Z" fill="#E2E4ED"/>
<path d="M9.02027 11.5812V1.89756C9.0204 1.65946 9.11509 1.43115 9.28351 1.26284C9.45193 1.09452 9.68029 0.999983 9.9184 1H8.04339C7.8053 0.999983 7.57694 1.09452 7.40852 1.26282C7.2401 1.43111 7.14541 1.65941 7.14526 1.8975V11.5812C7.14541 11.8193 7.2401 12.0476 7.40852 12.2159C7.57694 12.3842 7.8053 12.4788 8.04339 12.4787H9.9184C9.6803 12.4788 9.45195 12.3842 9.28353 12.2159C9.11511 12.0476 9.02042 11.8193 9.02027 11.5812V11.5812Z" fill="#B0B5CA"/>
<path d="M14.9221 18.79V17.285C14.9222 16.6649 15.1175 16.0606 15.4805 15.5579C15.8434 15.0551 16.3554 14.6794 16.9439 14.4841C16.6441 14.3845 16.3302 14.3339 16.0142 14.3341H15.9986C15.6111 14.334 15.2273 14.4104 14.8692 14.5587C14.5111 14.707 14.1858 14.9244 13.9118 15.1984C13.6377 15.4725 13.4203 15.7978 13.272 16.1559C13.1237 16.5139 13.0474 16.8977 13.0474 17.2853V18.7903C13.0474 19.1778 13.1237 19.5615 13.272 19.9196C13.4203 20.2776 13.6377 20.6029 13.9118 20.8769C14.1859 21.1509 14.5112 21.3682 14.8693 21.5165C15.2273 21.6647 15.6111 21.741 15.9986 21.7409H16.0142C16.3302 21.741 16.6441 21.6904 16.9439 21.5909C16.3554 21.3957 15.8433 21.02 15.4803 20.5172C15.1174 20.0144 14.922 19.4101 14.9221 18.79V18.79Z" fill="#E75163"/>
<path d="M13.758 22.8525C12.8893 22.8752 12.0638 23.2363 11.4575 23.8588C10.8512 24.4814 10.5121 25.3161 10.5123 26.1851V31H12.3873V26.185C12.3861 25.531 12.5783 24.8912 12.9398 24.3463C13.24 23.8935 13.6458 23.5206 14.1223 23.2596C13.9883 23.1357 13.8663 22.9994 13.758 22.8525Z" fill="#E75163"/>
<path d="M14.0445 3.33299H11.2408C11.1414 3.33299 11.046 3.29348 10.9757 3.22316C10.9054 3.15283 10.8658 3.05745 10.8658 2.95799C10.8658 2.85854 10.9054 2.76315 10.9757 2.69283C11.046 2.6225 11.1414 2.58299 11.2408 2.58299H14.0445C14.1439 2.58299 14.2393 2.6225 14.3096 2.69283C14.38 2.76315 14.4195 2.85854 14.4195 2.95799C14.4195 3.05745 14.38 3.15283 14.3096 3.22316C14.2393 3.29348 14.1439 3.33299 14.0445 3.33299Z" fill="#9FA9B7"/>
<path d="M9.89469 3.33299H8.8125C8.71304 3.33299 8.61766 3.29348 8.54733 3.22316C8.47701 3.15283 8.4375 3.05745 8.4375 2.95799C8.4375 2.85854 8.47701 2.76315 8.54733 2.69283C8.61766 2.6225 8.71304 2.58299 8.8125 2.58299H9.89494C9.99439 2.58299 10.0898 2.6225 10.1601 2.69283C10.2304 2.76315 10.2699 2.85854 10.2699 2.95799C10.2699 3.05745 10.2304 3.15283 10.1601 3.22316C10.0898 3.29348 9.99439 3.33299 9.89494 3.33299H9.89469Z" fill="#9FA9B7"/>
<path d="M14.0445 5.77156H13.3972C13.2978 5.77156 13.2024 5.73205 13.1321 5.66173C13.0617 5.5914 13.0222 5.49602 13.0222 5.39656C13.0222 5.2971 13.0617 5.20172 13.1321 5.1314C13.2024 5.06107 13.2978 5.02156 13.3972 5.02156H14.0445C14.1439 5.02156 14.2393 5.06107 14.3096 5.1314C14.38 5.20172 14.4195 5.2971 14.4195 5.39656C14.4195 5.49602 14.38 5.5914 14.3096 5.66173C14.2393 5.73205 14.1439 5.77156 14.0445 5.77156Z" fill="#9FA9B7"/>
<path d="M12.0534 5.77156H8.8125C8.71304 5.77156 8.61766 5.73205 8.54733 5.66173C8.47701 5.5914 8.4375 5.49602 8.4375 5.39656C8.4375 5.2971 8.47701 5.20172 8.54733 5.1314C8.61766 5.06107 8.71304 5.02156 8.8125 5.02156H12.0536C12.1531 5.02156 12.2485 5.06107 12.3188 5.1314C12.3891 5.20172 12.4286 5.2971 12.4286 5.39656C12.4286 5.49602 12.3891 5.5914 12.3188 5.66173C12.2485 5.73205 12.1531 5.77156 12.0536 5.77156H12.0534Z" fill="#9FA9B7"/>
<path d="M14.0443 8.21003H10.1608C10.0613 8.21003 9.96593 8.17052 9.8956 8.10019C9.82528 8.02987 9.78577 7.93449 9.78577 7.83503C9.78577 7.73558 9.82528 7.6402 9.8956 7.56987C9.96593 7.49955 10.0613 7.46004 10.1608 7.46004H14.0443C14.1437 7.46004 14.2391 7.49955 14.3094 7.56987C14.3798 7.6402 14.4193 7.73558 14.4193 7.83503C14.4193 7.93449 14.3798 8.02987 14.3094 8.10019C14.2391 8.17052 14.1437 8.21003 14.0443 8.21003Z" fill="#9FA9B7"/>
<path d="M8.81238 8.21003H8.80444C8.70499 8.21003 8.6096 8.17052 8.53928 8.10019C8.46895 8.02987 8.42944 7.93449 8.42944 7.83503C8.42944 7.73558 8.46895 7.6402 8.53928 7.56987C8.6096 7.49955 8.70499 7.46004 8.80444 7.46004H8.81238C8.91184 7.46004 9.00722 7.49955 9.07755 7.56987C9.14787 7.6402 9.18738 7.73558 9.18738 7.83503C9.18738 7.93449 9.14787 8.02987 9.07755 8.10019C9.00722 8.17052 8.91184 8.21003 8.81238 8.21003Z" fill="#9FA9B7"/>
<path d="M14.0441 10.6485H13.6736C13.5741 10.6485 13.4787 10.609 13.4084 10.5387C13.3381 10.4684 13.2986 10.373 13.2986 10.2735C13.2986 10.1741 13.3381 10.0787 13.4084 10.0084C13.4787 9.93805 13.5741 9.89854 13.6736 9.89854H14.0441C14.1436 9.89854 14.239 9.93805 14.3093 10.0084C14.3796 10.0787 14.4191 10.1741 14.4191 10.2735C14.4191 10.373 14.3796 10.4684 14.3093 10.5387C14.239 10.609 14.1436 10.6485 14.0441 10.6485Z" fill="#9FA9B7"/>
<path d="M12.3106 10.6485H8.8125C8.71304 10.6485 8.61766 10.609 8.54733 10.5387C8.47701 10.4684 8.4375 10.373 8.4375 10.2735C8.4375 10.1741 8.47701 10.0787 8.54733 10.0084C8.61766 9.93805 8.71304 9.89854 8.8125 9.89854H12.3106C12.4101 9.89854 12.5055 9.93805 12.5758 10.0084C12.6461 10.0787 12.6856 10.1741 12.6856 10.2735C12.6856 10.373 12.6461 10.4684 12.5758 10.5387C12.5055 10.609 12.4101 10.6485 12.3106 10.6485Z" fill="#9FA9B7"/>
<path d="M23.0253 3.33299H22.4503C22.3509 3.33299 22.2555 3.29348 22.1852 3.22316C22.1148 3.15283 22.0753 3.05745 22.0753 2.95799C22.0753 2.85854 22.1148 2.76315 22.1852 2.69283C22.2555 2.6225 22.3509 2.58299 22.4503 2.58299H23.0253C23.1248 2.58299 23.2202 2.6225 23.2905 2.69283C23.3608 2.76315 23.4003 2.85854 23.4003 2.95799C23.4003 3.05745 23.3608 3.15283 23.2905 3.22316C23.2202 3.29348 23.1248 3.33299 23.0253 3.33299Z" fill="#9FA9B7"/>
<path d="M21.0625 3.33299H17.7931C17.6936 3.33299 17.5983 3.29348 17.5279 3.22316C17.4576 3.15283 17.4181 3.05745 17.4181 2.95799C17.4181 2.85854 17.4576 2.76315 17.5279 2.69283C17.5983 2.6225 17.6936 2.58299 17.7931 2.58299H21.0625C21.1619 2.58299 21.2573 2.6225 21.3276 2.69283C21.398 2.76315 21.4375 2.85854 21.4375 2.95799C21.4375 3.05745 21.398 3.15283 21.3276 3.22316C21.2573 3.29348 21.1619 3.33299 21.0625 3.33299Z" fill="#9FA9B7"/>
<path d="M23.0251 5.77156H19.9626C19.8632 5.77156 19.7678 5.73205 19.6975 5.66173C19.6272 5.5914 19.5876 5.49602 19.5876 5.39656C19.5876 5.2971 19.6272 5.20172 19.6975 5.1314C19.7678 5.06107 19.8632 5.02156 19.9626 5.02156H23.0251C23.1246 5.02156 23.22 5.06107 23.2903 5.1314C23.3606 5.20172 23.4001 5.2971 23.4001 5.39656C23.4001 5.49602 23.3606 5.5914 23.2903 5.66173C23.22 5.73205 23.1246 5.77156 23.0251 5.77156Z" fill="#9FA9B7"/>
<path d="M18.5975 5.77156H17.7931C17.6936 5.77156 17.5983 5.73205 17.5279 5.66173C17.4576 5.5914 17.4181 5.49602 17.4181 5.39656C17.4181 5.2971 17.4576 5.20172 17.5279 5.1314C17.5983 5.06107 17.6936 5.02156 17.7931 5.02156H18.5975C18.6969 5.02156 18.7923 5.06107 18.8626 5.1314C18.933 5.20172 18.9725 5.2971 18.9725 5.39656C18.9725 5.49602 18.933 5.5914 18.8626 5.66173C18.7923 5.73205 18.6969 5.77156 18.5975 5.77156Z" fill="#9FA9B7"/>
<path d="M23.0255 8.21003H22.0226C21.9231 8.21003 21.8277 8.17052 21.7574 8.10019C21.6871 8.02987 21.6476 7.93449 21.6476 7.83503C21.6476 7.73558 21.6871 7.6402 21.7574 7.56987C21.8277 7.49955 21.9231 7.46004 22.0226 7.46004H23.0255C23.125 7.46004 23.2204 7.49955 23.2907 7.56987C23.361 7.6402 23.4005 7.73558 23.4005 7.83503C23.4005 7.93449 23.361 8.02987 23.2907 8.10019C23.2204 8.17052 23.125 8.21003 23.0255 8.21003Z" fill="#9FA9B7"/>
<path d="M20.6795 8.21003H17.7931C17.6936 8.21003 17.5983 8.17052 17.5279 8.10019C17.4576 8.02987 17.4181 7.93449 17.4181 7.83503C17.4181 7.73558 17.4576 7.6402 17.5279 7.56987C17.5983 7.49955 17.6936 7.46004 17.7931 7.46004H20.6795C20.779 7.46004 20.8744 7.49955 20.9447 7.56987C21.015 7.6402 21.0545 7.73558 21.0545 7.83503C21.0545 7.93449 21.015 8.02987 20.9447 8.10019C20.8744 8.17052 20.779 8.21003 20.6795 8.21003Z" fill="#9FA9B7"/>
<path d="M23.0251 10.6485H19.6788C19.5794 10.6485 19.484 10.609 19.4137 10.5387C19.3433 10.4684 19.3038 10.373 19.3038 10.2735C19.3038 10.1741 19.3433 10.0787 19.4137 10.0084C19.484 9.93805 19.5794 9.89854 19.6788 9.89854H23.0251C23.1245 9.89854 23.2199 9.93805 23.2902 10.0084C23.3606 10.0787 23.4001 10.1741 23.4001 10.2735C23.4001 10.373 23.3606 10.4684 23.2902 10.5387C23.2199 10.609 23.1245 10.6485 23.0251 10.6485Z" fill="#9FA9B7"/>
<path d="M18.3398 10.6485H17.7931C17.6936 10.6485 17.5983 10.609 17.5279 10.5387C17.4576 10.4684 17.4181 10.373 17.4181 10.2735C17.4181 10.1741 17.4576 10.0787 17.5279 10.0084C17.5983 9.93805 17.6936 9.89854 17.7931 9.89854H18.3398C18.4392 9.89854 18.5346 9.93805 18.6049 10.0084C18.6753 10.0787 18.7148 10.1741 18.7148 10.2735C18.7148 10.373 18.6753 10.4684 18.6049 10.5387C18.5346 10.609 18.4392 10.6485 18.3398 10.6485Z" fill="#9FA9B7"/>
</svg>
