<svg width="32" height="32" viewBox="0 0 32 32" fill="none" xmlns="http://www.w3.org/2000/svg">
<path d="M30.9998 4.33333H29.6665V3.33333H6.33313V1H30.9998V4.33333Z" fill="#E6E6E6"/>
<path d="M29.6669 4.33334H31.0002V21.6667H29.6669V4.33334Z" fill="#F4F4F4"/>
<path d="M29.6667 6.66668H28.3333V5.66668H5V3.33334H29.6667V6.66668Z" fill="#D2D2D2"/>
<path d="M28.3331 6.66669H29.6665V24H28.3331V6.66669Z" fill="#E6E6E6"/>
<path d="M28.3335 9.00001H27.0002V8.00001H3.66687V5.66669H28.3335V9.00001Z" fill="#E6E6E6"/>
<path d="M27 9H28.3333V26.3333H27V9Z" fill="#F4F4F4"/>
<path d="M26.9998 11.3333H25.6665V10.3333H2.33313V8H26.9998V11.3333Z" fill="#D2D2D2"/>
<path d="M25.6669 11.3333H27.0002V28.6667H25.6669V11.3333Z" fill="#E6E6E6"/>
<path d="M1 10.3333H25.6667V13.6667H1V10.3333Z" fill="#63B2B9"/>
<path d="M1 13.6667H25.6667V31H1V13.6667Z" fill="#F4F4F4"/>
<path d="M2.66687 15.3333H14.6669V25.3333H2.66687V15.3333Z" fill="#E6646E"/>
<path d="M8.66646 23.6666C10.5074 23.6666 11.9998 22.1743 11.9998 20.3333C11.9998 18.4924 10.5074 17 8.66646 17C6.82551 17 5.33313 18.4924 5.33313 20.3333C5.33313 22.1743 6.82551 23.6666 8.66646 23.6666Z" fill="#F4F4F4"/>
<path d="M7.33313 22V18.6667L10.6665 20.3333L7.33313 22Z" fill="#E6646E"/>
<path d="M16.3331 15.3333H19.6665V19H16.3331V15.3333Z" fill="#F68250"/>
<path d="M19.6669 15.3333H24.0002V19H19.6669V15.3333Z" fill="#F9BE3C"/>
<path d="M16.3331 20.3333H19.6665V24H16.3331V20.3333Z" fill="#F68250"/>
<path d="M19.6669 20.3333H24.0002V24H19.6669V20.3333Z" fill="#F9BE3C"/>
<path d="M16.3331 25.3333H19.6665V29H16.3331V25.3333Z" fill="#F68250"/>
<path d="M19.6669 25.3333H24.0002V29H19.6669V25.3333Z" fill="#F9BE3C"/>
<path d="M24.3335 12.3333H13.0002C12.8159 12.3333 12.6669 12.1843 12.6669 12C12.6669 11.8157 12.8159 11.6667 13.0002 11.6667H24.3335C24.5179 11.6667 24.6669 11.8157 24.6669 12C24.6669 12.1843 24.5179 12.3333 24.3335 12.3333Z" fill="#50A3AB"/>
<path d="M5.33334 12.3333C5.51743 12.3333 5.66667 12.1841 5.66667 12C5.66667 11.8159 5.51743 11.6667 5.33334 11.6667C5.14924 11.6667 5 11.8159 5 12C5 12.1841 5.14924 12.3333 5.33334 12.3333Z" fill="#E6E6E6"/>
<path d="M4.00021 12.3333C4.1843 12.3333 4.33354 12.1841 4.33354 12C4.33354 11.8159 4.1843 11.6667 4.00021 11.6667C3.81611 11.6667 3.66687 11.8159 3.66687 12C3.66687 12.1841 3.81611 12.3333 4.00021 12.3333Z" fill="#E6E6E6"/>
<path d="M2.66646 12.3333C2.85056 12.3333 2.9998 12.1841 2.9998 12C2.9998 11.8159 2.85056 11.6667 2.66646 11.6667C2.48237 11.6667 2.33313 11.8159 2.33313 12C2.33313 12.1841 2.48237 12.3333 2.66646 12.3333Z" fill="#E6E6E6"/>
<path d="M3.9998 27H2.66646C2.48213 27 2.33313 26.851 2.33313 26.6666C2.33313 26.4823 2.48213 26.3333 2.66646 26.3333H3.9998C4.18413 26.3333 4.33313 26.4823 4.33313 26.6666C4.33313 26.851 4.18413 27 3.9998 27Z" fill="#8C645A"/>
<path d="M14.6667 27H5.33333C5.149 27 5 26.851 5 26.6666C5 26.4823 5.149 26.3333 5.33333 26.3333H14.6667C14.851 26.3333 15 26.4823 15 26.6666C15 26.851 14.851 27 14.6667 27Z" fill="#8C645A"/>
<path d="M3.9998 28.3332H2.66646C2.48213 28.3332 2.33313 28.1842 2.33313 27.9999C2.33313 27.8156 2.48213 27.6666 2.66646 27.6666H3.9998C4.18413 27.6666 4.33313 27.8156 4.33313 27.9999C4.33313 28.1842 4.18413 28.3332 3.9998 28.3332Z" fill="#8C645A"/>
<path d="M14.6667 28.3332H5.33333C5.149 28.3332 5 28.1842 5 27.9999C5 27.8156 5.149 27.6666 5.33333 27.6666H14.6667C14.851 27.6666 15 27.8156 15 27.9999C15 28.1842 14.851 28.3332 14.6667 28.3332Z" fill="#8C645A"/>
<path d="M3.9998 29.6667H2.66646C2.48213 29.6667 2.33313 29.5177 2.33313 29.3333C2.33313 29.149 2.48213 29 2.66646 29H3.9998C4.18413 29 4.33313 29.149 4.33313 29.3333C4.33313 29.5177 4.18413 29.6667 3.9998 29.6667Z" fill="#8C645A"/>
<path d="M14.6667 29.6667H5.33333C5.149 29.6667 5 29.5177 5 29.3333C5 29.149 5.149 29 5.33333 29H14.6667C14.851 29 15 29.149 15 29.3333C15 29.5177 14.851 29.6667 14.6667 29.6667Z" fill="#8C645A"/>
</svg>
