<svg width="32" height="32" viewBox="0 0 32 32" fill="none" xmlns="http://www.w3.org/2000/svg">
<g clip-path="url(#clip0)">
<path d="M25.8757 26.2041V30.0505C25.8757 31.1313 24.9998 32.0073 23.9194 32.0073H2.09961C1.01929 32.0073 0.143555 31.1313 0.143555 30.0505V26.2041C0.143555 25.5708 0.44458 25.0078 0.911621 24.6501C1.24072 24.3977 1.65259 24.2478 2.09961 24.2478H23.9194C24.9998 24.2478 25.8757 25.1238 25.8757 26.2041V26.2041Z" fill="#1ED688"/>
<path d="M25.8757 26.2041V28.9663C25.5461 29.2187 25.134 29.3684 24.6877 29.3684H2.86792C1.7876 29.3684 0.911621 28.4927 0.911621 27.4124V24.6501C1.24072 24.3977 1.65259 24.2478 2.09961 24.2478H23.9194C24.9998 24.2478 25.8757 25.1238 25.8757 26.2041V26.2041Z" fill="#35E298"/>
<path d="M28.1304 11.2278V20.2439C28.1304 21.1763 27.3752 21.9316 26.4434 21.9316H10.0376C9.10522 21.9316 8.34985 21.1763 8.34985 20.2439V11.2278C8.34985 10.2959 9.10522 9.54077 10.0376 9.54077H26.4434C27.3752 9.54077 28.1304 10.2959 28.1304 11.2278V11.2278Z" fill="#FFC14F"/>
<path d="M28.1304 11.2278V18.5576H13.9954C13.063 18.5576 12.3079 17.8022 12.3079 16.8699V9.54077H26.4434C27.3752 9.54077 28.1304 10.2959 28.1304 11.2278V11.2278Z" fill="#FFCD71"/>
<path d="M11.2983 9.54077V21.8193L11.2834 21.9316H10.0376C9.10522 21.9316 8.34985 21.1763 8.34985 20.2439V11.2278C8.34985 10.2959 9.10522 9.54077 10.0376 9.54077H11.2983Z" fill="#F29500"/>
<path d="M22.3169 1.56714V5.62109C22.3169 6.45166 21.6433 7.12573 20.8123 7.12573H5.3186C4.4873 7.12573 3.81396 6.45166 3.81396 5.62109V1.56714C3.81396 0.999512 4.12793 0.505615 4.59253 0.249268C4.80786 0.129883 5.05518 0.0625 5.3186 0.0625H20.8123C21.6433 0.0625 22.3169 0.736084 22.3169 1.56714Z" fill="#6990D7"/>
<path d="M22.3169 1.56714V4.73291C22.1013 4.85229 21.8542 4.91968 21.5908 4.91968H6.09717C5.26611 4.91968 4.59253 4.24561 4.59253 3.41504V0.249268C4.80786 0.129883 5.05518 0.0625 5.3186 0.0625H20.8123C21.6433 0.0625 22.3169 0.736084 22.3169 1.56714V1.56714Z" fill="#91AEE2"/>
<path d="M25.7048 11.3306H13.0525C12.7837 11.3306 12.5659 11.5483 12.5659 11.8171C12.5659 12.0859 12.7837 12.3037 13.0525 12.3037H25.7048C25.9734 12.3037 26.1914 12.0859 26.1914 11.8171C26.1914 11.5483 25.9736 11.3306 25.7048 11.3306Z" fill="#F29500"/>
<path d="M25.7048 13.9431H13.0525C12.7837 13.9431 12.5659 14.1609 12.5659 14.4297C12.5659 14.6985 12.7837 14.9165 13.0525 14.9165H25.7048C25.9734 14.9165 26.1914 14.6985 26.1914 14.4297C26.1914 14.1609 25.9736 13.9431 25.7048 13.9431Z" fill="#F29500"/>
<path d="M25.7048 16.5557H13.0525C12.7837 16.5557 12.5659 16.7734 12.5659 17.0422C12.5659 17.311 12.7837 17.5291 13.0525 17.5291H25.7048C25.9734 17.5291 26.1914 17.311 26.1914 17.0422C26.1914 16.7734 25.9736 16.5557 25.7048 16.5557Z" fill="#F29500"/>
<path d="M25.7048 19.1682H13.0525C12.7837 19.1682 12.5659 19.386 12.5659 19.6548C12.5659 19.9236 12.7837 20.1416 13.0525 20.1416H25.7048C25.9734 20.1416 26.1914 19.9236 26.1914 19.6548C26.1914 19.386 25.9736 19.1682 25.7048 19.1682Z" fill="#F29500"/>
<path d="M7.25171 15.7529C7.25171 15.4839 7.03369 15.2661 6.76489 15.2661H2.16675C1.50879 15.2661 0.973144 14.7307 0.973144 14.0728V5.36255C0.973144 4.70435 1.50879 4.16895 2.16675 4.16895C2.43555 4.16895 2.65332 3.95117 2.65332 3.68237C2.65332 3.41357 2.43555 3.19556 2.16675 3.19556C0.971924 3.19556 0 4.16772 0 5.36255V14.0728C0 15.2673 0.971924 16.2395 2.16675 16.2395H6.76514C7.03369 16.2395 7.25171 16.0215 7.25171 15.7529V15.7529Z" fill="#919196"/>
<path d="M6.49976 5.29663H19.6311C19.8999 5.29663 20.1177 5.07861 20.1177 4.80981C20.1177 4.54102 19.8999 4.32324 19.6311 4.32324H6.49976C6.23096 4.32324 6.01294 4.54102 6.01294 4.80981C6.01294 5.07861 6.23096 5.29663 6.49976 5.29663V5.29663Z" fill="#274C91"/>
<path d="M6.49976 2.86475H19.6311C19.8999 2.86475 20.1177 2.64697 20.1177 2.37817C20.1177 2.10938 19.8999 1.8916 19.6311 1.8916H6.49976C6.23096 1.8916 6.01294 2.10938 6.01294 2.37817C6.01294 2.64697 6.23096 2.86475 6.49976 2.86475V2.86475Z" fill="#274C91"/>
<path d="M18.7466 28.8567H2.76318C2.49438 28.8567 2.27661 29.0745 2.27661 29.3433C2.27661 29.6121 2.49438 29.8301 2.76318 29.8301H18.7463C19.0151 29.8301 19.2329 29.6121 19.2329 29.3433C19.2329 29.0745 19.0151 28.8567 18.7466 28.8567Z" fill="#169B62"/>
<path d="M18.7466 26.425H2.76318C2.49438 26.425 2.27661 26.6428 2.27661 26.9116C2.27661 27.1804 2.49438 27.3982 2.76318 27.3982H18.7463C19.0151 27.3982 19.2329 27.1804 19.2329 26.9116C19.2329 26.6428 19.0151 26.425 18.7466 26.425Z" fill="#169B62"/>
<path d="M29.9219 14.4426C29.6531 14.4426 29.4353 14.6604 29.4353 14.9292C29.4353 15.198 29.6531 15.416 29.9219 15.416C30.5312 15.416 31.0269 15.9116 31.0269 16.5208V26.5359C31.0269 27.145 30.531 27.6406 29.9219 27.6406H27.667C27.3982 27.6406 27.1804 27.8584 27.1804 28.1272C27.1804 28.396 27.3982 28.6138 27.667 28.6138H29.9219C31.0679 28.6138 32 27.6816 32 26.5359V16.5208C32 15.375 31.0679 14.4426 29.9219 14.4426V14.4426Z" fill="#919196"/>
<path d="M23.7604 25.7339C23.5375 25.5837 23.235 25.6428 23.0849 25.8657L21.3 28.5161L20.7089 27.6384C20.5588 27.4153 20.2563 27.3564 20.0334 27.5066C19.8105 27.6567 19.7514 27.9592 19.9015 28.1819L20.8964 29.6592C20.9867 29.7935 21.1381 29.874 21.3 29.874C21.4618 29.874 21.6132 29.7935 21.7035 29.6592L23.8923 26.4094C24.0422 26.1865 23.9833 25.884 23.7604 25.7339V25.7339Z" fill="#169B62"/>
</g>
<defs>
<clipPath id="clip0">
<path d="M0 0H32V32H0V0Z" fill="white"/>
</clipPath>
</defs>
</svg>
